<?xml version="1.0" encoding="utf-8"?>
<!-- Generator: Adobe Illustrator 23.0.2, SVG Export Plug-In . SVG Version: 6.00 Build 0)  -->
<svg version="1.1" id="Capa_1" xmlns="http://www.w3.org/2000/svg" xmlns:xlink="http://www.w3.org/1999/xlink" x="0px" y="0px"
	 viewBox="0 0 512.1 512.1" style="enable-background:new 0 0 512.1 512.1;" xml:space="preserve">
<style type="text/css">
	.st0{fill:#FAFAFA;}
	.st1{fill:#e4e4e4;}
	.st2{fill:#FFFFFF;}
	.st3{opacity:0;fill:#420083;enable-background:new    ;}
</style>
<g>
	<path class="st0" d="M405.4,256.1c-21.1,1.8-40.8,11.5-55,27.2c-7.9,6.4-17.5,14.1-29.5,23c-54-51.1-87.7-71.5-118.2-71.5
		c-66,0-96,44.2-96,85.3c0,47.1,38.2,85.3,85.3,85.3c39.7,0,102.9-50,126.5-69.9c15.9,19.7,50.8,59.3,76.2,59.3
		c33,0,53.3-43.5,53.3-74.7C448.1,262.3,418.2,256.1,405.4,256.1z"/>
	<path class="st0" d="M329.5,426.7c0.4,0,0.9,0,1.3,0c5.4,0,10-4,10.7-9.4c1.4-8.4-1-16.9-6.4-23.5c-6.7-6.9-16.1-10.5-25.6-9.8
		c-20.5-1.3-40,8.5-51.2,25.7c-3.4,4.8-2.1,11.5,2.7,14.8c4.7,3.2,11.1,2.2,14.5-2.3c7.1-11.7,20.3-18.3,34-17
		c3.4-0.4,6.8,0.6,9.5,2.6c1.3,2,1.7,4.5,1.3,6.8C319.4,420.7,323.6,426,329.5,426.7C329.4,426.7,329.5,426.7,329.5,426.7z"/>
	<path class="st0" d="M333.8,440.5c-17.1,17.1-87.8,14.5-102.3,0c-4.2-4.1-11-4-15.1,0.3c-4,4.1-4,10.7,0,14.8
		c20,13.5,43.9,19.8,68,18.1c23,1.8,45.8-4.6,64.4-18.1c4.1-4.2,4-11-0.3-15.1C344.5,436.5,338,436.5,333.8,440.5L333.8,440.5z"/>
</g>
<circle class="st1" cx="256" cy="256" r="253.1"/>
<g id="Outline">
	
		<rect x="170.4" y="229.4" transform="matrix(0.3714 -0.9285 0.9285 0.3714 -93.8362 330.1456)" class="st2" width="53.1" height="9.9"/>
	<path class="st2" d="M174.2,215.7l-19.7,14.8c-2.2,1.6-2.6,4.7-1,6.9c0.3,0.4,0.6,0.7,1,1l19.7,14.8l5.9-7.9l-14.4-10.8l14.4-10.8
		L174.2,215.7z"/>
	<path class="st2" d="M219.5,253.1l19.7-14.8c2.2-1.6,2.6-4.7,1-6.9c-0.3-0.4-0.6-0.7-1-1l-19.7-14.8l-5.9,7.9l14.4,10.8l-14.4,10.8
		L219.5,253.1z"/>
	<rect x="127.9" y="185.1" class="st2" width="9.9" height="9.9"/>
	<rect x="147.6" y="185.1" class="st2" width="9.9" height="9.9"/>
	<rect x="167.3" y="185.1" class="st2" width="9.9" height="9.9"/>
	<path class="st2" d="M374.2,270.2l-39.4-5.6v-15.5c11-8.3,18.1-20.8,19.5-34.5h0.2c10.9,0,19.7-8.8,19.7-19.7
		c0-7.2-3.9-13.8-10.2-17.3c9.5-5.3,13-17.2,7.7-26.8c-2.6-4.8-7.1-8.2-12.4-9.6c-1-11.5-10.6-20.3-22.1-20.3
		c-3.7,0-7.3,0.9-10.6,2.7c-6.6-11.9-21.6-16.1-33.5-9.4c-4,2.2-7.2,5.5-9.4,9.4c-3.2-1.8-6.9-2.7-10.6-2.7
		c-11.5,0-21.1,8.8-22.1,20.3c-10.6,2.7-16.9,13.4-14.2,24c0,0,0,0,0,0.1h-109c-10.9,0-19.7,8.8-19.7,19.7v113.3
		c0,10.9,8.8,19.7,19.7,19.7h52.3l-6.6,19.7h-6.3c-8.1,0-14.7,6.6-14.8,14.8c0,8.2,6.6,14.8,14.8,14.8h39.4v14.8
		c0,13.6,11,24.6,24.6,24.6c0,0,15.5,0,15.8-0.1l58-12.2l58.2,12.2c0.3,0.1,15.8,0.1,15.8,0.1c13.6,0,24.6-11,24.6-24.6v-77.8
		C403.7,287.2,391.1,272.7,374.2,270.2z M285.6,254.9c12.6,5.5,26.8,5.5,39.4,0v13.1c-3.9,9.8-12.7,13.3-19.7,13.3
		s-15.8-3.5-19.7-13.3V254.9z M344.7,209.7c0,21.8-17.6,39.4-39.4,39.4s-39.4-17.6-39.4-39.4V208c7.2,8.2,19.6,9,27.8,1.8
		c3-2.6,5.1-6.1,6.1-9.9h11.1c2.7,10.5,13.4,16.9,24,14.2c3.8-1,7.3-3.1,9.9-6.1V209.7z M246.1,195c0-5.4,4.4-9.8,9.9-9.9v19.7
		C250.6,204.8,246.2,200.4,246.1,195z M329.9,175.3c-9,0-16.8,6.1-19.1,14.8h-11.1c-2.7-10.5-13.4-16.9-24-14.2
		c-2,0.5-4,1.4-5.7,2.5l1.2-3.7c1.5,0.4,3,0.5,4.5,0.5c6.9,0,13.3-3.6,16.9-9.5c7.3,6.2,18,6.2,25.4,0c3.6,5.9,10,9.5,16.9,9.5
		c1.5,0,3-0.2,4.5-0.5l1.2,3.7C337.3,176.3,333.7,175.3,329.9,175.3z M339.7,195c0,5.4-4.4,9.9-9.9,9.9c-5.4,0-9.9-4.4-9.9-9.9
		c0-5.4,4.4-9.9,9.9-9.9C335.3,185.1,339.7,189.5,339.7,195z M290.5,195c0,5.4-4.4,9.9-9.9,9.9c-5.4,0-9.9-4.4-9.9-9.9
		c0-5.4,4.4-9.9,9.9-9.9C286.1,185.1,290.5,189.5,290.5,195z M354.5,204.8v-19.7c5.4,0,9.9,4.4,9.9,9.9
		C364.4,200.4,360,204.8,354.5,204.8z M255.8,150.6c0.1,0,0.3,0,0.4,0c2.7,0,5-2.1,5-4.9c0-0.3,0-0.5-0.1-0.8l0-0.2
		c-0.1-0.5-0.1-1-0.2-1.6c0-6.8,5.5-12.3,12.3-12.3c3.5,0,6.8,1.5,9.1,4.1c1.8,2,4.9,2.2,7,0.4c0.8-0.7,1.3-1.6,1.5-2.6
		c1.7-8,9.5-13.1,17.5-11.4c5.7,1.2,10.2,5.7,11.4,11.4c0.6,2.7,3.2,4.4,5.8,3.8c1-0.2,1.9-0.7,2.6-1.5c2.3-2.6,5.6-4.1,9.1-4.1
		c6.8,0,12.3,5.5,12.3,12.3c0,0.5-0.1,1-0.2,1.6l0,0.2c-0.2,1.4,0.2,2.9,1.2,4c0.9,1.1,2.3,1.7,3.8,1.7c0.2,0,0.3,0,0.4,0
		c5.4,0.1,9.7,4.7,9.6,10.1c-0.1,5.3-4.5,9.6-9.8,9.6c-0.5,0-5.1-0.2-6.3,0.1l-1.3-3.8c-0.9-2.6-3.6-4-6.2-3.1
		c-0.3,0.1-0.7,0.3-1,0.4c-1.5,0.9-3.2,1.4-5,1.4c-5.4,0-9.8-4.4-9.9-9.9c0-2.7-2.2-4.9-4.9-4.9c-0.5,0-1.1,0.1-1.6,0.3l-1,0.3
		c-1.4,0.5-2.5,1.5-3.1,2.9c-1.9,5.1-7.5,7.6-12.6,5.7c-2.6-1-4.7-3.1-5.7-5.7c-0.5-1.4-1.6-2.5-3.1-2.9l-1-0.3
		c-2.6-0.9-5.4,0.5-6.2,3.1c-0.2,0.5-0.3,1-0.3,1.6c0,5.4-4.4,9.8-9.9,9.9c-1.8,0-3.5-0.5-5-1.4c-2.3-1.4-5.4-0.6-6.8,1.7
		c-0.2,0.3-0.3,0.6-0.4,1l-1.3,3.8c-1.2-0.3-5.8-0.1-6.3-0.1c-5.4,0.1-9.9-4.3-10-9.7S250.3,150.7,255.8,150.6L255.8,150.6z
		 M118.1,185.1c0-5.4,4.4-9.8,9.9-9.9H243c1.1,0.9,2.2,1.8,3.5,2.5c-9.5,5.3-13,17.2-7.7,26.8c3.5,6.3,10.1,10.2,17.3,10.2h0.2
		c1.4,13.7,8.4,26.2,19.5,34.5v15.7l-41.7,8.9c-6.7,1.5-12.8,4.9-17.5,9.8h-98.4V185.1z M118.1,298.4v-4.9h91.7c-2,4.4-3,9.2-3,14
		v0.7h-78.8C122.5,308.3,118.1,303.8,118.1,298.4z M190.6,318.1h16.2v19.7H184L190.6,318.1z M162.4,352.6c0-1.3,0.5-2.5,1.4-3.4
		c0,0,0.1-0.1,0.1-0.1c0.9-0.9,2.1-1.4,3.4-1.4h39.4v9.9h-39.4C164.6,357.5,162.4,355.3,162.4,352.6z M245.6,396.9h-14.3
		c-8.2,0-14.8-6.6-14.8-14.8v-4.9h18.2l13.5,9c0.8,0.5,1.8,0.8,2.7,0.8h19.2l11,2.3L245.6,396.9z M393.9,382.1
		c0,8.2-6.6,14.8-14.8,14.8h-14.3l-93.1-19.6c-0.3-0.1-0.7-0.1-1-0.1h-18.2l-13.5-9c-0.8-0.5-1.8-0.8-2.7-0.8h-19.7v-24.6h18.7
		l33.6,14.4c0.5,0.2,1,0.3,1.6,0.4l123.5,9.5V382.1z M393.9,357.1l-44.3-3.4l16.7-7.1l8.9-3.8h18.7V357.1z M393.9,332.9h-19.7
		c-0.7,0-1.3,0.1-1.9,0.4l-3,1.3v-16.5h-9.9v20.7l-20.9,9l-33.2,2.6l-33.4-2.6l-20.9-9v-20.7h-9.9v16.5l-3-1.3
		c-0.6-0.3-1.3-0.4-1.9-0.4h-19.7v-25.4c0.1-11.6,8.1-21.6,19.5-24.1l41.7-8.9c8,15.2,26.8,21,42,13.1c5.7-3,10.3-7.6,13.2-13.3
		l1.2,0.2l0,0l38.7,5.5c12.1,1.8,21.1,12.2,21.2,24.4V332.9z"/>
	<path class="st2" d="M300.9,219.6h-10.4v9.9h10.4c6.7,0,13.2-0.2,19.4-0.6l-0.6-9.8C313.7,219.4,307.4,219.6,300.9,219.6z"/>
</g>
<circle class="st3" cx="315.8" cy="152.8" r="114.2"/>
</svg>
