<svg width="513" height="513" viewBox="0 0 513 513" fill="none" xmlns="http://www.w3.org/2000/svg">
<path d="M405.4 256.101C384.3 257.901 364.6 267.601 350.4 283.301C342.5 289.701 332.9 297.401 320.9 306.301C266.9 255.201 233.2 234.801 202.7 234.801C136.7 234.801 106.7 279.001 106.7 320.101C106.7 367.201 144.9 405.401 192 405.401C231.7 405.401 294.9 355.401 318.5 335.501C334.4 355.201 369.3 394.801 394.7 394.801C427.7 394.801 448 351.301 448 320.101C448.1 262.301 418.2 256.101 405.4 256.101Z" fill="#FAFAFA"/>
<path d="M329.5 426.702C329.9 426.702 330.4 426.702 330.8 426.702C336.2 426.702 340.8 422.702 341.5 417.302C342.9 408.902 340.5 400.402 335.1 393.802C328.4 386.902 319 383.302 309.5 384.002C289 382.702 269.5 392.502 258.3 409.702C254.9 414.502 256.2 421.202 261 424.502C265.7 427.702 272.1 426.702 275.5 422.202C282.6 410.502 295.8 403.902 309.5 405.202C312.9 404.802 316.3 405.802 319 407.802C320.3 409.802 320.7 412.302 320.3 414.602C319.4 420.702 323.6 426.002 329.5 426.702C329.5 426.702 329.4 426.702 329.5 426.702Z" fill="#FAFAFA"/>
<path d="M333.8 440.5C316.7 457.6 246 455 231.5 440.5C227.3 436.4 220.5 436.5 216.4 440.8C212.4 444.9 212.4 451.5 216.4 455.6C236.4 469.1 260.3 475.4 284.4 473.7C307.4 475.5 330.2 469.1 348.8 455.6C352.9 451.4 352.8 444.6 348.5 440.5C344.5 436.5 338 436.5 333.8 440.5Z" fill="#FAFAFA"/>
<path d="M256 509.1C395.784 509.1 509.1 395.784 509.1 256C509.1 116.217 395.784 2.90039 256 2.90039C116.217 2.90039 2.90039 116.217 2.90039 256C2.90039 395.784 116.217 509.1 256 509.1Z" fill="#E4E4E4"/>
<path d="M202.17 207.826L182.448 257.129L191.64 260.806L211.362 211.502L202.17 207.826Z" fill="white"/>
<path d="M174.2 215.701L154.5 230.501C152.3 232.101 151.9 235.201 153.5 237.401C153.8 237.801 154.1 238.101 154.5 238.401L174.2 253.201L180.1 245.301L165.7 234.501L180.1 223.701L174.2 215.701Z" fill="white"/>
<path d="M219.5 253.1L239.2 238.3C241.4 236.7 241.8 233.6 240.2 231.4C239.9 231 239.6 230.7 239.2 230.4L219.5 215.6L213.6 223.5L228 234.3L213.6 245.1L219.5 253.1Z" fill="white"/>
<path d="M137.799 185.1H127.899V195H137.799V185.1Z" fill="white"/>
<path d="M157.5 185.1H147.6V195H157.5V185.1Z" fill="white"/>
<path d="M177.2 185.1H167.3V195H177.2V185.1Z" fill="white"/>
<path fill-rule="evenodd" clip-rule="evenodd" d="M374.2 270.2L334.8 264.6V249.1C345.8 240.8 352.9 228.3 354.3 214.6H354.5C365.4 214.6 374.2 205.8 374.2 194.9C374.2 187.7 370.3 181.1 364 177.6C373.5 172.3 377 160.4 371.7 150.8C369.1 146 364.6 142.6 359.3 141.2C358.3 129.7 348.7 120.9 337.2 120.9C333.5 120.9 329.9 121.8 326.6 123.6C320 111.7 305 107.5 293.1 114.2C289.1 116.4 285.9 119.7 283.7 123.6C280.5 121.8 276.8 120.9 273.1 120.9C261.6 120.9 252 129.7 251 141.2C240.4 143.9 234.1 154.6 236.8 165.2V165.3H127.8C116.9 165.3 108.1 174.1 108.1 185V298.3C108.1 309.2 116.9 318 127.8 318H180.1L173.5 337.7H167.2C159.1 337.7 152.5 344.3 152.4 352.5C152.4 360.7 159 367.3 167.2 367.3H206.6V382.1C206.6 395.7 217.6 406.7 231.2 406.7C231.2 406.7 246.7 406.7 247 406.6L305 394.4L363.2 406.6C363.5 406.7 379 406.7 379 406.7C392.6 406.7 403.6 395.7 403.6 382.1V304.3C403.7 287.2 391.1 272.7 374.2 270.2ZM325 254.9C312.4 260.4 298.2 260.4 285.6 254.9V268C289.5 277.8 298.3 281.3 305.3 281.3C312.3 281.3 321.1 277.8 325 268V254.9ZM305.3 249.1C327.1 249.1 345 231.3 345 209.5C345 209.5 345.434 200.706 344.8 195C344.06 188.354 340.6 178.4 340.6 178.4L339.4 174.7C337.9 175 336.4 175.2 334.9 175.2C328 175.2 321.6 171.6 318 165.7C310.6 171.9 299.9 171.9 292.6 165.7C289 171.6 282.6 175.2 275.7 175.2C274.2 175.2 272.7 175.1 271.2 174.7L270 178.4C270 178.4 266.219 188.322 265.5 195C264.885 200.71 265 210 265 210C265 231.8 283.5 249.1 305.3 249.1ZM256 185.1C250.5 185.2 246.1 189.6 246.1 195C246.2 200.4 250.6 204.8 256 204.8V185.1ZM354.5 185.1V204.8C360 204.8 364.4 200.4 364.4 195C364.4 189.5 359.9 185.1 354.5 185.1ZM256.2 150.6H255.8C250.3 150.7 245.5 155.4 245.6 160.8C245.7 166.2 250.2 170.6 255.6 170.5C256.1 170.5 260.7 170.3 261.9 170.6L263.2 166.8C263.3 166.4 263.4 166.1 263.6 165.8C265 163.5 268.1 162.7 270.4 164.1C271.9 165 273.6 165.5 275.4 165.5C280.9 165.4 285.3 161 285.3 155.6C285.3 155 285.4 154.5 285.6 154C286.4 151.4 289.2 150 291.8 150.9L292.8 151.2C294.3 151.6 295.4 152.7 295.9 154.1C296.9 156.7 299 158.8 301.6 159.8C306.7 161.7 312.3 159.2 314.2 154.1C314.8 152.7 315.9 151.7 317.3 151.2L318.3 150.9C318.8 150.7 319.4 150.6 319.9 150.6C322.6 150.6 324.8 152.8 324.8 155.5C324.9 161 329.3 165.4 334.7 165.4C336.5 165.4 338.2 164.9 339.7 164C340 163.9 340.4 163.7 340.7 163.6C343.3 162.7 346 164.1 346.9 166.7L348.2 170.5C349.4 170.2 354 170.4 354.5 170.4C359.8 170.4 364.2 166.1 364.3 160.8C364.4 155.4 360.1 150.8 354.7 150.7H354.3C352.8 150.7 351.4 150.1 350.5 149C349.5 147.9 349.1 146.4 349.3 145V144.8C349.4 144.2 349.5 143.7 349.5 143.2C349.5 136.4 344 130.9 337.2 130.9C333.7 130.9 330.4 132.4 328.1 135C327.4 135.8 326.5 136.3 325.5 136.5C322.9 137.1 320.3 135.4 319.7 132.7C318.5 127 314 122.5 308.3 121.3C300.3 119.6 292.5 124.7 290.8 132.7C290.6 133.7 290.1 134.6 289.3 135.3C287.2 137.1 284.1 136.9 282.3 134.9C280 132.3 276.7 130.8 273.2 130.8C266.4 130.8 260.9 136.3 260.9 143.1C261 143.7 261 144.2 261.1 144.7V144.9C261.2 145.2 261.2 145.4 261.2 145.7C261.2 148.5 258.9 150.6 256.2 150.6ZM128 175.2C122.5 175.3 118.1 179.7 118.1 185.1H118.2V283.6H216.6C221.3 278.7 227.4 275.3 234.1 273.8L275.8 264.9V249.2C264.7 240.9 257.7 228.4 256.3 214.7H256.1C248.9 214.7 242.3 210.8 238.8 204.5C233.5 194.9 237 183 246.5 177.7C245.2 177 244.1 176.1 243 175.2H128ZM118.1 293.5V298.4C118.1 303.8 122.5 308.3 128 308.2H206.8V307.5C206.8 302.7 207.8 297.9 209.8 293.5H118.1ZM206.8 318.1H190.6L184 337.8H206.8V318.1ZM163.8 349.2C162.9 350.1 162.4 351.3 162.4 352.6C162.4 355.3 164.6 357.5 167.3 357.6H206.7V347.7H167.3C166 347.7 164.8 348.2 163.9 349.1L163.8 349.2ZM231.3 396.9H245.6L281.1 389.3L270.1 387H250.9C250 387 249 386.7 248.2 386.2L234.7 377.2H216.5V382.1C216.5 390.3 223.1 396.9 231.3 396.9ZM379.1 396.9C387.3 396.9 393.9 390.3 393.9 382.1H394V367.1L270.5 357.6C269.9 357.5 269.4 357.4 268.9 357.2L235.3 342.8H216.6V367.4H236.3C237.2 367.4 238.2 367.7 239 368.2L252.5 377.2H270.7C271 377.2 271.4 377.2 271.7 377.3L364.8 396.9H379.1ZM349.6 353.7L393.9 357.1V342.8H375.2L366.3 346.6L349.6 353.7ZM374.2 332.9H393.9H394V304.4C393.9 292.2 384.9 281.8 372.8 280L334.1 274.5L332.9 274.3C330 280 325.4 284.6 319.7 287.6C304.5 295.5 285.7 289.7 277.7 274.5L236 283.4C224.6 285.9 216.6 295.9 216.5 307.5V332.9H236.2C236.8 332.9 237.5 333 238.1 333.3L241.1 334.6V318.1H251V338.8L271.9 347.8L305.3 350.4L338.5 347.8L359.4 338.8V318.1H369.3V334.6L372.3 333.3C372.9 333 373.5 332.9 374.2 332.9Z" fill="white"/>
<path d="M300.9 219.6H290.5V229.5H300.9C307.6 229.5 314.1 229.3 320.3 228.9L319.7 219.1C313.7 219.4 307.4 219.6 300.9 219.6Z" fill="white"/>
<path fill-rule="evenodd" clip-rule="evenodd" d="M287 205C292.523 205 297 200.523 297 195C297 189.477 292.523 185 287 185C281.477 185 277 189.477 277 195C277 200.523 281.477 205 287 205ZM324 205C329.523 205 334 200.523 334 195C334 189.477 329.523 185 324 185C318.477 185 314 189.477 314 195C314 200.523 318.477 205 324 205Z" fill="#E4E4E4"/>
</svg>
