<svg width="617" height="580" fill="none" xmlns="http://www.w3.org/2000/svg"><g clip-path="url(#clip0)"><path d="M327 470V336c0-19.882 16.118-36 36-36h58c19.882 0 36 16.118 36 36v134c0 28.091-20 27.257-20 0V338.401c0-11.046-8.955-20-20-20h-50c-11.046 0-20 8.954-20 20V470c0 27.257-20 28.091-20 0zM37 580c-5.523 0-10-4.477-10-10s4.477-10 10-10h210.5c-.328-1.615-.5-3.288-.5-5 0-13.807 11.193-25 25-25h240c13.807 0 25 11.193 25 25s-11.193 25-25 25H272c-1.039 0-2.063-.064-3.068-.187-.625.122-1.271.187-1.932.187H37zm235-20h240c2.761 0 5-2.239 5-5s-2.239-5-5-5H272c-2.761 0-5 2.239-5 5s2.239 5 5 5z" fill="#e4e4e4"/><path d="M57.0001 580c-11.046 0-21.747-9.173-23.902-20.488L.9021 390.488C-1.2519 379.173 5.9541 370 17.0001 370H127c11.045 0 21.747 9.173 23.902 20.488l32.196 169.024C185.253 570.827 178.045 580 167 580H57.0001zm1.098-20h99.9999c2.761 0 4.562-2.239 4.023-5l-31.219-160c-.539-2.761-3.213-5-5.974-5H24.9281c-2.762 0-4.565 2.239-4.026 5l31.219 160c.539 2.761 3.215 5 5.977 5z" fill="#e4e4e4"/><path d="M117 373c0-54.999 2.435-48.184 10-67 10.415-25.907 48-41 48-41" stroke="#e4e4e4" stroke-width="20" stroke-linejoin="round"/><path d="M268.5 14.5S277.815 34.831 299 40c17.5 4.2699 39.5 2 39.5 2m-98-19s12.5 45 65 48c25.677 2.399 49.5-5.999 49.5-5.999" stroke="#e4e4e4" stroke-width="15" stroke-linejoin="round"/><path d="M221 37s-1.499 17.501 12.5 31.5c13.999 13.999 12.5 18.5 48 29S357 94 357 94" stroke="#e4e4e4" stroke-width="15" stroke-linejoin="round"/><circle cx="241" cy="131" r="12" fill="transparent"/><circle cx="314" cy="131" r="12" fill="transparent"/><path d="M206.999 60.0007c18.228-36.724 42.13-49.603 73-50 31.931-.41 64.747 21.781 76.999 50C376.916 105.875 356.999 190 356.999 190h-160s-15.588-78.443 10-129.9993z" stroke="#e4e4e4" stroke-width="20" stroke-linejoin="round"/><path d="M237 72s-.5 12.6454-16 20-25.5-5-25.5-5" stroke="#e4e4e4" stroke-width="15" stroke-linejoin="round"/><path d="M57.2174 450c-5.221 0-10.279 5.679-11.297 12.684l-15.219 104.632c-1.018 7.005 2.388 12.684 7.609 12.684h51.995c5.22 0 10.2776-5.679 11.2956-12.684l15.219-104.632c1.019-7.005-2.388-12.684-7.609-12.684H57.2174zm5.914 20h32.529c.898 0 1.484 1.185 1.309 2.646l-10.155 84.708c-.175 1.461-1.047 2.646-1.945 2.646h-32.529c-.899 0-1.484-1.185-1.309-2.646l10.156-84.708c.176-1.461 1.045-2.646 1.944-2.646z" fill="#e4e4e4"/><path fill-rule="evenodd" clip-rule="evenodd" d="M347 530h-20v-40H205c-20.987 0-38-17.013-38-38V218c0-20.986 17.013-38 38-38h374c20.986 0 38 17.014 38 38v234c0 20.987-17.014 38-38 38H457v40h-20v-60h140c11.045 0 20-8.954 20-20V220c0-11.045-8.955-20-20-20H207c-11.046 0-20 8.955-20 20v230c0 11.046 8.954 20 20 20h140v60z" fill="#e4e4e4"/></g><defs><clipPath id="clip0"><path fill="#fff" d="M0 0h617v580H0z"/></clipPath></defs></svg>