<svg width="618" height="575" viewBox="0 0 618 575" fill="none" xmlns="http://www.w3.org/2000/svg">
<path fill-rule="evenodd" clip-rule="evenodd" d="M279.998 0C332.464 0 374.998 44.3242 374.998 99C374.998 105.417 375.238 112.008 375.481 118.644L375.481 118.645L375.483 118.701C376.171 137.502 376.872 156.661 372.168 173.238H353.5C361.006 157.264 360.289 137.16 359.588 117.514L359.587 117.481C359.384 111.8 359.183 106.158 359.183 100.665C359.183 100.109 359.178 99.5537 359.168 99C359.168 99 317.5 116 274.5 102C258.997 96.9524 247.34 90.7438 238.61 84.5C238.61 84.5 226.922 97.5915 216.5 100C210.533 101.379 200.818 100.665 200.818 100.665C200.818 106.158 200.616 111.8 200.414 117.481L200.413 117.514C199.715 137.063 199.002 157.065 206.39 173L188.835 176.5C183.03 159.203 183.778 138.749 184.512 118.701L184.514 118.645C184.757 112.009 184.998 105.417 184.998 99C184.998 44.3242 227.53 0 279.998 0ZM297 29.5C289.281 25.9956 280 16 280 16C297.375 16 313.443 21.9837 326.5 32.129C326.5 32.129 307.532 34.2812 297 29.5ZM295 48C311.84 53.9652 342.736 49 342.736 49C344.019 50.7786 345.237 52.6133 346.387 54.5C346.387 54.5 332.5 62.0938 299 60C262 57.6875 248.424 23 248.424 23C252.143 21.2689 256.01 19.8343 260 18.724C260 18.724 267 38.0815 295 48ZM293 77C320.5 83.1308 354.36 71.5 354.36 71.5C355.636 75.218 356.675 79.0583 357.457 83C357.457 83 315 96.1364 281.5 87C233.027 73.7801 226.5 38.2482 226.5 38.2482C228.577 36.2119 230.756 34.2926 233.027 32.5C233.027 32.5 245.5 66.4105 293 77ZM213.614 54.5C213.614 54.5 215.879 62.7121 225.423 73C225.423 73 219.185 79.8511 213.5 81.5C209.386 82.6934 202.645 82.5 202.645 82.5C204.716 72.3691 208.484 62.9166 213.614 54.5Z" fill="#e4e4e4"/>
<path d="M110.376 308.062C106.708 317.805 104.623 327.612 103.994 337L103.5 374H121V349C121 349 121.113 327.71 125.912 315.311C134.259 293.747 149.626 278.708 167 272.676V253.092C144.528 256.404 121.691 278.005 110.376 308.062Z" fill="#e4e4e4"/>
<path fill-rule="evenodd" clip-rule="evenodd" d="M205.012 173H579.012C599.999 173 617.012 190.013 617.012 211V450C617.012 470.987 599.999 488 579.012 488H455.011V528H508.512C521.491 528 532.012 538.521 532.012 551.5C532.012 564.479 521.491 575 508.512 575H275.512C274.668 575 273.833 574.955 273.01 574.868C272.524 574.955 272.023 575 271.512 575H156.01H86.953H55.9226H45.6301H32.5123C27.818 575 24.0123 571.194 24.0123 566.5C24.0123 564.194 24.9303 562.103 26.4206 560.572C26.1923 559.783 26.0104 558.972 25.8785 558.142L0.266589 397.142C-1.66564 384.996 7.71924 374 20.0182 374H130.398C140.23 374 148.605 381.147 150.149 390.858L175.761 551.858C176.095 553.957 176.091 556.021 175.792 558H252.922C252.67 557.117 252.466 556.214 252.317 555.292C252.117 554.058 252.012 552.791 252.012 551.5C252.012 538.521 262.534 528 275.512 528H329.011V488H205.012C184.026 488 167.012 470.987 167.012 450V211C167.012 190.013 184.026 173 205.012 173ZM85.9412 557H50.0601L61.6585 469.475C61.922 467.486 63.6178 466 65.6238 466H93.435C95.8528 466 97.7179 468.129 97.4003 470.525L85.9412 557ZM106.856 557L117.166 470.363C118.581 458.465 109.288 448 97.3057 448H66.2753C56.1438 448 47.6126 455.576 46.4155 465.637L39.283 525.575L17.3504 394.661C16.9418 392.222 18.8223 390 21.2955 390H128.094C130.048 390 131.717 391.412 132.039 393.339L158.677 552.339C159.086 554.778 157.205 557 154.732 557H106.856ZM437.011 336.491V528H347.011V488H347.012V470H347.011V336.491C347.011 324.403 355.966 314.604 367.011 314.604H417.011C428.057 314.604 437.011 324.403 437.011 336.491ZM329.011 470V337.585C329.011 314.618 346.025 296 367.011 296H417.011C437.998 296 455.011 314.618 455.011 337.585V470H579.012C590.058 470 599.012 461.046 599.012 450V211C599.012 199.954 590.058 191 579.012 191H205.012C193.967 191 185.012 199.954 185.012 211V450C185.012 461.046 193.967 470 205.012 470H329.011ZM275.512 546C272.475 546 270.012 548.463 270.012 551.5C270.012 554.537 272.475 557 275.512 557H508.512C511.549 557 514.012 554.537 514.012 551.5C514.012 548.463 511.549 546 508.512 546H275.512Z" fill="#e4e4e4"/>
<path fill-rule="evenodd" clip-rule="evenodd" d="M239 141C246.18 141 252 135.18 252 128C252 120.82 246.18 115 239 115C231.82 115 226 120.82 226 128C226 135.18 231.82 141 239 141ZM312 141C319.18 141 325 135.18 325 128C325 120.82 319.18 115 312 115C304.82 115 299 120.82 299 128C299 135.18 304.82 141 312 141Z" fill="transparent"/>
</svg>
