<svg xmlns="http://www.w3.org/2000/svg" xmlns:xlink="http://www.w3.org/1999/xlink" version="1.1" x="0px" y="0px" viewBox="0 0 100 125" enable-background="new 0 0 100 100" xml:space="preserve"><path fill="#e4e4e4" d="M94.999,63.264c-0.002-0.223-0.114-0.431-0.3-0.555L72.763,48.022c0.023-6.168,0.061-16.495,0.061-19.174  c0-4.03-4.238-8.617-12.958-14.021c-9.5-6.43-12.584-7.297-14.348-7.297h-4.912c-0.048,0-0.095,0.005-0.139,0.014  c-0.002,0-0.005,0.001-0.007,0.002c-0.053,0.012-0.102,0.031-0.15,0.054c-0.005,0.003-0.012,0.003-0.018,0.007  c-0.007,0.003-0.013,0.01-0.02,0.014c-0.041,0.023-0.078,0.051-0.113,0.081c-0.007,0.006-0.016,0.012-0.022,0.019  c-0.039,0.038-0.072,0.08-0.101,0.125c-0.007,0.011-0.013,0.022-0.02,0.034c-0.021,0.038-0.038,0.077-0.051,0.119  c-0.004,0.014-0.009,0.027-0.013,0.042c-0.014,0.054-0.023,0.108-0.023,0.166V23.77c-2.254-1.738-5.076-2.775-8.137-2.775v1.351  c6.6,0,11.972,5.354,12.004,11.946c-0.033,3.931-3.239,7.119-7.177,7.119c-2.055,0-3.727,1.671-3.727,3.726v6.748  c0,1.793-1.458,3.251-3.251,3.251c-5.435,0-9.856-4.421-9.856-9.855V34.352c0-6.62,5.386-12.006,12.006-12.006v-1.351  c-7.365,0-13.358,5.992-13.358,13.357v4.966l-7.087,5.266C7.665,45.806,5,49.281,5,53.369v9.689c0,3.498,1.839,7.872,3.936,9.361  c1.827,1.298,3.557,2.455,3.739,2.573l0.003,0.002l23.006,14.844l-0.004,0.006c0.038,0.022,0.076,0.042,0.114,0.064l0.06,0.039  l0.002-0.003c1.436,0.839,3.069,1.285,4.743,1.285c2.066,0,4.081-0.685,5.716-1.935c0.573,0.139,1.17,0.215,1.785,0.215  c1.453,0,2.862-0.414,4.078-1.199c0.009-0.005,0.015-0.013,0.023-0.019l0.002,0.002l9.193-6.38l4.052,2.397v0.599h0.034v-0.579  l1.297,0.768l0.002-0.003c0.01,0.006,0.019,0.015,0.03,0.021c0.098,0.052,0.206,0.077,0.312,0.077c0.136,0,0.271-0.041,0.386-0.121  l27.202-18.939c0.182-0.126,0.29-0.333,0.29-0.555V63.27h-0.001C94.998,63.268,94.999,63.266,94.999,63.264z M93.125,63.281  l-25.863,18.04l-2.691-1.613l0.688-0.478c1.43-0.955,2.363-2.707,2.514-4.658c0.607-0.39,2.071-1.333,3.262-2.127  c1.965-1.31,2.88-2.849,2.88-4.842c0-1.224-0.697-2.503-2.013-3.085c0.486-2.002,3.231-3.549,3.807-3.853  c1.652-0.875,2.401-2.413,1.908-3.922c-0.538-1.649-2.318-2.552-3.966-2.015l0.004,0.015c-0.607,0.248-1.275,0.248-1.882-0.003  c-0.266-0.11-0.503-0.264-0.711-0.45l1.398-0.994c0.178-0.126,0.284-0.33,0.284-0.548c0-0.048,0.005-1.253,0.012-3.104  L93.125,63.281z M72.564,67.604c0,1.521-0.703,2.668-2.279,3.718c-0.853,0.569-1.85,1.216-2.566,1.679  c-0.321-2.086-1.618-3.854-3.407-4.824c0.6-0.401,1.512-1.018,2.388-1.638c1.294-0.916,2.44-0.991,3.598-0.991  C70.928,65.547,72.564,65.917,72.564,67.604z M45.518,8.881c2.181,0,6.376,2.181,13.602,7.073c0.007,0.005,0.015,0.01,0.023,0.015  c8.067,4.998,12.33,9.452,12.33,12.88c0,3.584-0.068,20.872-0.078,23.548l-2.047,1.455l-0.165,0.068  c0.005,0.013,0.012,0.024,0.018,0.036l-0.769,0.546V26.955c0-0.222-0.109-0.43-0.292-0.556L42.774,8.881H45.518z M43.771,12.968  c-0.207-0.143-0.476-0.159-0.698-0.042c-0.223,0.116-0.362,0.347-0.362,0.598V26.67c-0.429-0.608-0.907-1.181-1.429-1.709V9.493  L67.081,27.31v27.205L44.052,38.412c0.254-0.45,0.468-0.924,0.638-1.42l19.363,13.251c0.115,0.079,0.249,0.118,0.382,0.118  c0.107,0,0.216-0.026,0.315-0.078c0.222-0.117,0.36-0.347,0.36-0.597V28.06c0-0.222-0.109-0.429-0.292-0.556L43.771,12.968z   M45.149,34.292c0-0.02,0.001-0.04,0.001-0.06h-0.003c-0.016-1.829-0.401-3.571-1.084-5.155V14.812l19.696,13.603v19.989  l-18.718-12.81c0.065-0.406,0.101-0.82,0.106-1.243h0.003C45.151,34.332,45.149,34.312,45.149,34.292z M42.825,40.076  c0.165-0.174,0.321-0.355,0.471-0.542l24.072,16.832c0.022,0.016,0.046,0.029,0.07,0.042c0.006,0.002,0.011,0.007,0.016,0.009  c0.042,0.021,0.085,0.036,0.13,0.047c0.011,0.003,0.021,0.006,0.032,0.008c0.046,0.01,0.092,0.017,0.139,0.017l0,0h0  c0.047,0,0.095-0.007,0.143-0.017c0.01-0.002,0.02-0.004,0.029-0.007c0.046-0.012,0.091-0.029,0.135-0.051  c0.001-0.001,0.003-0.001,0.004-0.002c0.003-0.002,0.006-0.004,0.009-0.006c0.023-0.013,0.047-0.025,0.07-0.042l1.796-1.276  c0.365,0.386,0.809,0.695,1.314,0.904c0.471,0.194,0.965,0.291,1.46,0.291c0.499,0,0.997-0.099,1.47-0.295l-0.001-0.003  c0.906-0.23,1.851,0.278,2.146,1.18c0.424,1.301-0.854,2.095-1.256,2.308c-0.941,0.499-3.882,2.235-4.49,4.738  c-0.095-0.006-0.19-0.014-0.29-0.014c-1.271,0-2.762,0.096-4.378,1.24c-1.45,1.026-3.012,2.052-3.027,2.062l0.091,0.138  c-0.579-0.166-1.189-0.256-1.821-0.256c-1.376,0-2.696,0.417-3.828,1.215l-5.401,3.959c-0.317-2.303-1.109-4.517-2.34-6.501  c-0.011-0.017-0.022-0.033-0.034-0.049c-0.681-0.908-2.065-2.388-3.667-4.101c-1.346-1.438-3.134-3.352-4.611-5.093l13.781,10.116  c0.119,0.087,0.26,0.131,0.399,0.131c0.132,0,0.264-0.038,0.378-0.116l8.516-5.739c0.184-0.125,0.295-0.331,0.298-0.554  c0.002-0.222-0.104-0.431-0.287-0.56L42.825,44.894V40.076z M41.779,49.348l17.057,11.967c0.118,0.083,0.253,0.123,0.387,0.123  c0.212,0,0.422-0.101,0.554-0.288c0.215-0.306,0.141-0.727-0.165-0.941L42.324,48.079c0.178-0.516,0.312-1.052,0.396-1.606  l20.067,14.154l-7.309,4.926L38.699,53.237c-0.061-0.136-0.105-0.261-0.132-0.372c0.362-0.233,0.707-0.491,1.032-0.771  l16.415,11.517c0.118,0.083,0.253,0.123,0.388,0.123c0.212,0,0.422-0.101,0.554-0.288c0.214-0.306,0.141-0.728-0.165-0.941  l-16.22-11.381C41.039,50.583,41.445,49.987,41.779,49.348z M34.246,51.884v-6.748c0-1.31,1.066-2.375,2.375-2.375  c1.801,0,3.474-0.563,4.853-1.521v3.841c0,4.176-3.255,7.603-7.361,7.883C34.196,52.617,34.246,52.256,34.246,51.884z   M18.435,41.002v3.112h-4.181c-0.002,0-0.005,0-0.008,0L18.435,41.002z M51.447,87.171c-0.001,0.001-0.003,0.001-0.004,0.002  c-0.997,0.643-2.153,0.983-3.345,0.983c-3.406,0-6.177-2.77-6.177-6.177v-6.514c0-0.374-0.302-0.676-0.676-0.676  c-0.373,0-0.675,0.302-0.675,0.676v6.514c0,2.948,1.704,5.504,4.178,6.739c-1.247,0.748-2.683,1.157-4.15,1.157  c-1.446,0-2.857-0.388-4.094-1.118L13.414,73.86c-0.179-0.118-1.885-1.258-3.695-2.544c-1.557-1.105-3.367-4.954-3.367-8.259v-9.689  c0-4.358,3.545-7.903,7.903-7.903h4.186c0.101,6.095,5.086,11.022,11.203,11.022c1.663,0,3.118-0.89,3.927-2.215v0.063  c1.355,0,2.642-0.296,3.803-0.821c0.747,1.953,3.652,5.162,7.531,9.31c1.562,1.669,2.912,3.113,3.556,3.964  c1.491,2.416,2.279,5.199,2.279,8.052v0.034h0.001c0.003,0.057,0.015,0.111,0.031,0.163c0.187,1.232,1.249,2.18,2.532,2.18  c0.374,0,0.676-0.303,0.676-0.676s-0.302-0.676-0.676-0.676c-0.667,0-1.212-0.544-1.212-1.212v-0.11h-0.003  c-0.002-0.141-0.008-0.281-0.014-0.421l6.048-4.432c0.893-0.629,1.943-0.961,3.039-0.961c2.914,0,5.284,2.37,5.284,5.283  c0,1.701-0.761,3.307-1.948,4.1L51.447,87.171z M63.352,80.553l3.093,1.854v0.924l-3.83-2.266L63.352,80.553z M67.797,83.222v-0.626  l25.851-18.03v0.659L67.797,83.222z"/></svg>